<svg xmlns="http://www.w3.org/2000/svg" xmlns:xlink="http://www.w3.org/1999/xlink" viewBox="0 0 400 300" width="406" height="306" class="illustration styles_illustrationTablet__1DWOa"><defs><linearGradient id="linear-gradient" x1="212.38" y1="116.34" x2="144.26" y2="181.84" gradientUnits="userSpaceOnUse"><stop offset="0" stop-color="gray"></stop><stop offset="1" stop-color="#fff"></stop></linearGradient><linearGradient id="linear-gradient-2" x1="336.24" y1="89.33" x2="192.84" y2="227.21" xlink:href="#linear-gradient"></linearGradient></defs><title>PP</title><g style="isolation: isolate;"><g id="Layer_2" data-name="Layer 2"><path d="M388.11,173.86,199.45,64.37c-2.75-1.6-6.86-.5-9.57,1.18L56.58,142.38c15-.41,38.62,3,60.49,23.75,35.49,33.64,13.93,51.57,67.74,58.74,45.91,6.12,56.9,38.45,59.14,47.8l145.19-82.88C394.85,186.47,393.83,177.19,388.11,173.86Z" fill="#ff734d"></path><path d="M184.8,224.87c-53.81-7.17-32.25-25.1-67.74-58.74C95.2,145.41,71.53,142,56.58,142.38l-15.69,9c12.7-1.83,42.45-2.58,69.44,23,35.49,33.64,13.93,51.57,67.74,58.74,40.89,5.45,54.08,31.69,58.06,44l7.81-4.46C241.71,263.31,230.72,231,184.8,224.87Z" fill="#ff734d"></path><path d="M184.8,224.87c-53.81-7.17-32.25-25.1-67.74-58.74C95.2,145.41,71.53,142,56.58,142.38l-15.69,9c12.7-1.83,42.45-2.58,69.44,23,35.49,33.64,13.93,51.57,67.74,58.74,40.89,5.45,54.08,31.69,58.06,44l7.81-4.46C241.71,263.31,230.72,231,184.8,224.87Z" fill="#fff" opacity="0.44"></path><path d="M14.56,181.45,26,188.2,7.06,173C6.95,175.94,10.55,179.2,14.56,181.45Z" fill="#68e1fd"></path><path d="M7.06,173,26,188.2l168.3,99.47A23.9,23.9,0,0,0,218,287.5l18.15-10.36c-4-12.29-17.17-38.53-58.06-44-53.81-7.17-32.25-25.1-67.74-58.74-27-25.58-56.74-24.83-69.44-23L9.51,169.5C7.84,170.54,7.11,171.74,7.06,173Z" fill="#68e1fd"></path><path d="M158.22,189.17c6.07-3.28,32.46-31.15,32.46-31.15-.85-2.52-1.66-4.8-4.17-6.48l-53.94,19.61Z" fill="url(#linear-gradient)" style="mix-blend-mode: multiply;"></path><path d="M281,173.79c-18.11-7.35-45.31-8.77-46.91-9.84l-67.47,39.11,52.7,27.69c3.27-1.77,25.71-13.35,45.71-23.65C269.68,198.69,276.67,182.34,281,173.79Z" fill="url(#linear-gradient-2)" style="mix-blend-mode: multiply;"></path><path d="M281,61s-8.84,56.16-25.48,70.72-50.44,28.08-50.44,28.08l46.8,28.08s67.08-14,69.68-100.36Z" fill="#68e1fd"></path><polygon points="321.61 87.52 263.37 211.36 267.35 213.85 325.64 90.47 321.61 87.52" fill="#565ec0"></polygon><polygon points="278.22 59.15 219.97 183 223.96 185.49 282.24 62.11 278.22 59.15" fill="#565ec0"></polygon><polygon points="323.74 171.62 309.6 113.06 305.24 122.32 319.3 171.62 323.74 171.62" fill="#403d8c"></polygon><polygon points="281.04 173.79 329.8 163.95 329.8 171.62 279.32 180.51 281.04 173.79" fill="#403d8c"></polygon><path d="M272.05,199.49c-1.21-.81-45.63-25.44-45.63-25.44l-2.83,6.46,46,26.25Z" fill="#403d8c"></path><path d="M266.31,95.95a15.52,15.52,0,0,0-.7,3.88c0,1.12,0,2.16,0,3.15A49.62,49.62,0,0,1,266.31,95.95Z" fill="#f6d8c0"></path><path d="M300.81,91.2c-.87-4.68-13.7-9-20.38-10.12a.43.43,0,0,1-.16.33c-.39.34-.77.71-1.14,1.08-2.86,4-8.07,5.53-10.49,9.88-2.69,4.83-1.51,10.7-2.73,15.94a18.34,18.34,0,0,1-.3,6.4c-1.06,3.62-7.47,6.68-7.47,6.68s-.06.25-.09.37c-1.65,1.11-19.56,15.14-23.71,20.77q-.49.84-.95,1.7c-.23.51-.6,1.24-1.06,2.13-5.24,11.35-5.91,24.75-9,37.09,3.93-4.31,11.73-13.34,17.46-20-5.69,12.15-12.41,29.94-13,31.67-.9,2.48-13.06,8.78-11.71,12.83s8.58.18,11.06-1.17,6.5-1.76,8.3-4.24-1.13-4.73.68-8.55,12.83-14.86,18.46-28.14c5.62-2.36,11.13-5,16.53-7.82,6.22-3.25,10.66-5.59,15.24-11.13,5.71-6.9,5.84-17.73,3.54-25.49-1.49-5,0-10.72,3-16S301.87,96.94,300.81,91.2Z" fill="#f6d8c0"></path><path d="M285,82.1s-8-2.66-10.26-1S272.58,90,272.58,90" fill="#f6d8c0"></path><path d="M290.11,112a33.69,33.69,0,0,1,.27-6.16c-.38-6.28,0-15.44,2.74-21.09-1.87,2.29-6.24,7.73-8.67,9.5-2.65,1.92-7.13,7.15-10.9,4.48-1.35-1-1.82-2.68-1.87-4.53l.16-.78s0,0,0,0c.45-2.47,2.4-4.43,3.68-6.5s2.36-4.23,4.35-5.48c-4,2.55-8.06,5.63-10.6,9.75a16.59,16.59,0,0,0-2.11,6.12c.06,3.83.61,7.63.48,11.5a11.14,11.14,0,0,1-3.17,7.6,6.31,6.31,0,0,0-.71,1.44c3.24,5.58,1.69,17.19,1.69,17.19,5.78-10.41,25.81-8.28,25.81-8.28C288.38,119.75,290.11,112,290.11,112Z" fill="#eb5d51"></path><path d="M290.62,123.8a38.15,38.15,0,0,1-1-5.31c-.44-4.15,2.57-11.38,2.57-11.38a14.67,14.67,0,0,1-1.93-5.86s.4,5.43-.46,5.88-6.36,18.57-3.15,19a28.48,28.48,0,0,1,4.36.82A24.93,24.93,0,0,0,290.62,123.8Z" fill="#eb5d51"></path><path d="M223.33,183.45c-.38,1.35-1.51,7.79-3.36,9.86s-11.64,5.93-12.16,7.73-2,4.75-.85,5.73,5.66.38,8-1,8.72-4.51,10.52-5.8,5.69-12.51,7-17,9-21,9.59-22.17S225.54,175.67,223.33,183.45Z" fill="#f6d8c0"></path><path d="M265,134.65l-10.66,8.27c-3.32,2.57-6.89,5-9.59,8.28-4.3,5.19-6,11.87-7.73,18.24a97.69,97.69,0,0,1-9.07,22.36,21.6,21.6,0,0,1-3.75,5.1,58.8,58.8,0,0,1-5.18,3.84c-2.17,1.68-3.82,3.71-4,6.53,0,.64,1,.64,1,0,.26-4.42,4.62-6.19,7.64-8.59a23.34,23.34,0,0,0,5.91-7.81,101.75,101.75,0,0,0,8.19-20.38c1.9-7,3.65-14.43,8.8-19.83,2.74-2.88,6.1-5.18,9.23-7.61l9.9-7.68C266.17,135,265.45,134.26,265,134.65Z" fill="#dda57f"></path><path d="M300.93,92.88s-8.48-3.84-10.3,1.59-1.4,14.06-2.59,15.38c-1,1.15-13.9,4.26-17.87,5a7.79,7.79,0,0,0-.77,5c3.35.2,21.35,1.9,24.89-3.84C298.2,109.64,300.8,94.77,300.93,92.88Z" fill="#f6d8c0"></path><path d="M270.17,114.82s-3-1.16-3.6-1.46-3.12.34-3.2.72,1.37.36,2.24.64-3.11.78-4.15,1.61-3.3,2.77-3,3.77,1.91,2.94,3.24,3.07,7.95-3.47,7.95-3.47Z" fill="#f6d8c0"></path><path d="M289.55,83.95c.3-4.38,1.39-11.91,1.39-11.91a92.33,92.33,0,0,0-8.59,6c-.55,2.3-1.27,4.55-2,6.79C283.36,86.36,287.49,86.68,289.55,83.95Z" fill="#edc4a9"></path><path d="M279.14,66.46s-2,7.28-.66,12.13,6.8,4.63,9.67,2.63,6.93-12,4.74-14.32S280.93,62.94,279.14,66.46Z" fill="#f6d8c0"></path><path d="M286.13,75.51a3.11,3.11,0,0,1,1.38-.89,1.55,1.55,0,0,1,1.87,1.5c.12,1.71-2.23,2.55-3.79,2.72a9.69,9.69,0,0,1-.09,3.57,19.93,19.93,0,0,1,2.26-.57,22.38,22.38,0,0,0,2.38-.91,9.53,9.53,0,0,0,5.17-5.32c2.1-5.09.21-10.5-4.34-13.68a9.21,9.21,0,0,0-4.19-1.61,9.31,9.31,0,0,0-6.39,1.54,9.09,9.09,0,0,0-2.91,3.48,10.93,10.93,0,0,0-.79,2.23c-.06.25-.53,2.12-.32,2.25,2.37,1.49,6.57,1,8.43,3.12A4.39,4.39,0,0,1,286.13,75.51Z" fill="#354e53"></path><circle cx="297.46" cy="67.36" r="5.72" transform="translate(177.37 347.71) rotate(-79.57)" fill="#354e53"></circle><rect x="181.27" y="97.37" width="6.05" height="60.93" rx="3.03" ry="3.03" fill="#8c513a"></rect><path d="M162.9,170.33h0a3.32,3.32,0,0,0,3.68.29L205.26,149a3.32,3.32,0,0,0,.87-5.11l-.42-.48a3.32,3.32,0,0,0-4.15-.68l-38.27,22.05A3.32,3.32,0,0,0,162.9,170.33Z" fill="#8c513a"></path><path d="M205.7,170.33h0a3.32,3.32,0,0,1-3.68.29L163.34,149a3.32,3.32,0,0,1-.87-5.11l.42-.48a3.32,3.32,0,0,1,4.15-.68l38.27,22.05A3.32,3.32,0,0,1,205.7,170.33Z" fill="#8c513a"></path><ellipse cx="184.3" cy="104.29" rx="38.33" ry="19.17" fill="#aab216"></ellipse><ellipse cx="184.3" cy="100.78" rx="38.33" ry="19.17" fill="#cfe217"></ellipse><g id="Layer_2-2" data-name="Layer 2"><path d="M173.27,76.16h0c0-3.45,4.69-6.23,10.48-6.23s10.48,2.78,10.48,6.23a3.78,3.78,0,0,1-.07.7l-2.58,27.24s-1.91,3-7.81,3-7.7-3.47-7.7-3.47L173.34,76.9A3.78,3.78,0,0,1,173.27,76.16Z" fill="#f3e4cf"></path><path d="M192.15,78.05l-1.93,25.46s-2.18,2-6.73,2-6.24-2.19-6.26-2.49-2.41-24-2.41-24" fill="#f3d35a"></path><path d="M194.08,78.1a6.39,6.39,0,0,1-.85,2.44c-1.57,2.92-5.06,4-8.16,4.08a17.2,17.2,0,0,1-5.27-.69,12.68,12.68,0,0,1-4.27-1.9,5.15,5.15,0,0,1-1.48-1.71,7.39,7.39,0,0,1-.6-2.72,5.54,5.54,0,0,1,.46-3.53,7.51,7.51,0,0,1,3.22-2.74,15.18,15.18,0,0,1,6.65-1.42c5.78,0,10.48,2.79,10.48,6.23a3.78,3.78,0,0,1-.07.7Z" fill="#fff6eb"></path><path d="M191.31,74a4.87,4.87,0,0,1,.67,5.07c-1.28,2.93-16.55-.27-16.55-.27s-.72-2.44.23-4" fill="#d3b897"></path><ellipse cx="183.74" cy="76.18" rx="8.4" ry="5" fill="#d3b897"></ellipse><ellipse cx="183.74" cy="78.05" rx="8.4" ry="5" fill="#f3d35a"></ellipse><path d="M167.11,75.05A7.25,7.25,0,0,1,176,70c3.65,1.15,5.59,5.3,4.34,9.25A8,8,0,0,1,178.84,82a16.82,16.82,0,0,1-4-2.95.2.2,0,0,0-.34.14,33.73,33.73,0,0,0,.36,5.29,6.5,6.5,0,0,1-3.4-.14A7.23,7.23,0,0,1,167.11,75.05Z" fill="#68e1fd"></path><path d="M167.11,75.05A7.25,7.25,0,0,1,176,70a6.5,6.5,0,0,1,2.91,1.9,9.15,9.15,0,0,0-4.22-.89,7.36,7.36,0,0,0-4.48,2,6.54,6.54,0,0,0-2,4.32,9.8,9.8,0,0,0,1.32,5,8.56,8.56,0,0,0,1,1.56A7.33,7.33,0,0,1,167.11,75.05Z" opacity="0.15" style="isolation: isolate;"></path><path d="M175.34,78.05s2.93,2.86,3.28,2.76a6.07,6.07,0,0,0,1-3.54C179.4,76.49,175.34,78.05,175.34,78.05Z" opacity="0.15" style="isolation: isolate;"></path><path d="M175.17,77.28s4.14-1.43,4.08-2.22-1.08-2.71-2-2.76S175.17,77.28,175.17,77.28Z" opacity="0.15" style="isolation: isolate;"></path><path d="M174.43,77.06s1.08-4.41.44-4.75-3.3,1.07-3.59,1.69S174.43,77.06,174.43,77.06Z" opacity="0.15" style="isolation: isolate;"></path><path d="M174.14,77.67s-3.64-3-4.28-2.21,0,3.18.54,3.48S174.14,77.67,174.14,77.67Z" opacity="0.15" style="isolation: isolate;"></path><path d="M173.72,78.69s-3.37,1.55-2.88,2.47,2.88,1.51,2.88,1.51l.42-4" opacity="0.15" style="isolation: isolate;"></path><path d="M191.24,78.83c0-.18-.5-3.32-1-3.45a12,12,0,0,0-3.45.23,8.26,8.26,0,0,0,.92,3.45C188,79.15,191.24,78.83,191.24,78.83Z" fill="#fff" opacity="0.58" style="isolation: isolate;"></path><path d="M191.24,78.83a12.47,12.47,0,0,1-1.09,1,19.77,19.77,0,0,1-3.68,0c-.46-.18-.87-2.27-.89-2.86s1.21-1.41,1.21-1.41a14.6,14.6,0,0,0,1.43,2.82A21.58,21.58,0,0,0,191.24,78.83Z" fill="#fff" opacity="0.58" style="isolation: isolate;"></path><path d="M185.14,74.57c-.19,0-3.26-.8-3.57-.38a11.94,11.94,0,0,0-1.1,3.28,8.3,8.3,0,0,0,3.54.46C184.2,77.69,185.14,74.57,185.14,74.57Z" fill="#fff" opacity="0.58" style="isolation: isolate;"></path><path d="M185.14,74.57a12.45,12.45,0,0,1,.55,1.4,20.07,20.07,0,0,1-1.38,3.41c-.34.36-2.43-.06-3-.26s-.85-1.65-.85-1.65a14.6,14.6,0,0,0,3.15-.25A21.62,21.62,0,0,0,185.14,74.57Z" fill="#fff" opacity="0.58" style="isolation: isolate;"></path><path d="M184.37,79.84c.13,0,2.44.48,2.53.86a8.74,8.74,0,0,1-.28,2.55,6.29,6.29,0,0,1-2.53-.79C184,82.26,184.37,79.84,184.37,79.84Z" fill="#fff" opacity="0.58" style="isolation: isolate;"></path><path d="M184.37,79.84a9.14,9.14,0,0,0-.81.77,14.6,14.6,0,0,0-.12,2.72c.12.34,1.65.72,2.09.76s1.08-.85,1.08-.85a10.92,10.92,0,0,1-2-1.15A16.16,16.16,0,0,1,184.37,79.84Z" fill="#fff" opacity="0.58" style="isolation: isolate;"></path><path d="M190.14,84.33c-.14,0-2.42-.59-2.65-.28a8.86,8.86,0,0,0-.81,2.43,6.31,6.31,0,0,0,2.62.35C189.44,86.66,190.14,84.33,190.14,84.33Z" fill="#fff" opacity="0.58" style="isolation: isolate;"></path><path d="M190.14,84.33a9.14,9.14,0,0,1,.41,1,14.2,14.2,0,0,1-1,2.53c-.25.26-1.8,0-2.22-.19s-.63-1.22-.63-1.22a10.91,10.91,0,0,0,2.34-.19A16.25,16.25,0,0,0,190.14,84.33Z" fill="#fff" opacity="0.58" style="isolation: isolate;"></path><path d="M182.57,83.92c0-.14-.37-2.46-.74-2.56a8.89,8.89,0,0,0-2.56.17,6.3,6.3,0,0,0,.67,2.56C180.15,84.16,182.57,83.92,182.57,83.92Z" fill="#fff" opacity="0.58" style="isolation: isolate;"></path><path d="M182.57,83.92a9.14,9.14,0,0,1-.81.77,14.53,14.53,0,0,1-2.73,0c-.33-.14-.64-1.68-.66-2.12s.9-1,.9-1a10.8,10.8,0,0,0,1.06,2.09A15.89,15.89,0,0,0,182.57,83.92Z" fill="#fff" opacity="0.58" style="isolation: isolate;"></path><path d="M182,86.45c0,.14-.13,2.48.22,2.66a8.87,8.87,0,0,0,2.54.34,6.26,6.26,0,0,0-.15-2.64A26.08,26.08,0,0,0,182,86.45Z" fill="#fff" opacity="0.58" style="isolation: isolate;"></path><path d="M182,86.45a9.14,9.14,0,0,1,.95-.6,14.7,14.7,0,0,1,2.67.54c.3.2.29,1.78.23,2.21s-1.09.85-1.09.85a10.73,10.73,0,0,0-.62-2.26A15.8,15.8,0,0,0,182,86.45Z" fill="#fff" opacity="0.58" style="isolation: isolate;"></path><path d="M181.35,88c0-.14-.37-2.46-.74-2.56a8.89,8.89,0,0,0-2.56.17,6.3,6.3,0,0,0,.67,2.56C178.93,88.24,181.35,88,181.35,88Z" fill="#fff" opacity="0.58" style="isolation: isolate;"></path><path d="M181.35,88a9.14,9.14,0,0,1-.81.77,14.54,14.54,0,0,1-2.73,0c-.33-.14-.64-1.68-.66-2.12s.9-1,.9-1a10.8,10.8,0,0,0,1.06,2.09A15.89,15.89,0,0,0,181.35,88Z" fill="#fff" opacity="0.58" style="isolation: isolate;"></path><path d="M188.83,90.72a.27.27,0,1,1-.24.24A.27.27,0,0,1,188.83,90.72Z" fill="#ffefdc"></path><path d="M189.94,85.69a.27.27,0,1,1-.24.24A.27.27,0,0,1,189.94,85.69Z" fill="#ffefdc"></path><path d="M191.35,83.52a.27.27,0,1,1-.24.24A.27.27,0,0,1,191.35,83.52Z" fill="#ffefdc"></path><path d="M185.44,85a.27.27,0,1,1-.24.24A.27.27,0,0,1,185.44,85Z" fill="#ffefdc"></path><path d="M176.72,84.29a.27.27,0,1,1-.24.24A.27.27,0,0,1,176.72,84.29Z" fill="#ffefdc"></path><path d="M182.69,90.55a.27.27,0,1,1-.24.24A.27.27,0,0,1,182.69,90.55Z" fill="#ffefdc"></path><path d="M178.77,90.49a.27.27,0,1,1-.24.24A.27.27,0,0,1,178.77,90.49Z" fill="#ffefdc"></path><path d="M179.88,98.09a.27.27,0,1,1-.24.24A.27.27,0,0,1,179.88,98.09Z" fill="#ffefdc"></path><path d="M186.31,94.88a.27.27,0,1,1-.24.24A.27.27,0,0,1,186.31,94.88Z" fill="#ffefdc"></path><path d="M182.95,95.74a.27.27,0,1,1-.24.24A.27.27,0,0,1,182.95,95.74Z" fill="#ffefdc"></path><path d="M187.93,99.17a.27.27,0,1,1-.24.24A.27.27,0,0,1,187.93,99.17Z" fill="#ffefdc"></path><path d="M190.71,62.71a3.41,3.41,0,0,1,.71-.14l.17,2a3.22,3.22,0,0,0-.74.25l-.51-2Z" fill="#fbb03b"></path><path d="M189.87,63l.53,2.08-.15.11a1.84,1.84,0,0,0-.43.52l-1-2A4.37,4.37,0,0,1,189.87,63Z" fill="#fbb03b"></path><path d="M193.3,62.79q-.2,1-.49,1.92l-.11-.05a1.63,1.63,0,0,0-.59-.11l-.17-2A4.68,4.68,0,0,1,193.3,62.79Z" fill="#fbb03b"></path><path d="M194.14,63.17a11.77,11.77,0,0,1,2.28,2.07l4.93,5-1.6,1.26-.29-.33c-1.44-1.62-2.92-3.22-4.51-4.71A13.54,13.54,0,0,0,193.28,65q.3-1,.51-2Z" fill="#fbb03b"></path><path d="M185.62,76.56l1.61-7.89c.21-1,.4-2.05.59-3.07l1.54,1.8c0,.27-.08.54-.13.78q-.83,4-1.64,7.93c-.09.45-.45,3.09-.9,6.57a9.14,9.14,0,0,1-1.84.33C185.23,79.59,185.53,77,185.62,76.56Z" fill="#fbb03b"></path><path d="M188.4,64.18l1.15,2.19q-.06.18-.1.37L188,65A3,3,0,0,1,188.4,64.18Z" fill="#fbb03b"></path><path d="M193.79,63q-.21,1-.51,2a3.45,3.45,0,0,0-.46-.26q.29-.95.49-1.92A4.78,4.78,0,0,1,193.79,63Z" fill="#b5391d"></path><path d="M191.94,62.54l.17,2a2.4,2.4,0,0,0-.51.05l-.17-2A4,4,0,0,1,191.94,62.54Z" fill="#b5391d"></path><path d="M190.35,62.83l.51,2a3.22,3.22,0,0,0-.46.27L189.87,63Z" fill="#b5391d"></path><path d="M188.77,63.77l1,2a2.94,2.94,0,0,0-.26.62l-1.15-2.19A3.27,3.27,0,0,1,188.77,63.77Z" fill="#b5391d"></path><path d="M187.82,65.51A3.29,3.29,0,0,1,188,65l1.5,1.76c0,.22-.09.43-.12.65q-.78-.89-1.54-1.81Z" fill="#b5391d"></path><path d="M184.84,83a10.15,10.15,0,0,0,1.84-.33c-.88,6.79-2.15,16.84-2.51,19.7-.51.06-1,.1-1.54.1C182.92,100.42,184.05,90,184.84,83Z" fill="#ff734d" opacity="0.49" style="isolation: isolate;"></path><path d="M200.77,71.65a2.17,2.17,0,0,0,.6-.61l0,0,0,0a.56.56,0,0,0,0-.54l0-.09a.84.84,0,0,0-1.16-.3,1.37,1.37,0,0,0-.4.41,1.11,1.11,0,0,0-.24.5.74.74,0,0,0,1.15.71Z" fill="#b5391d"></path></g></g></g></svg>